<svg xmlns="http://www.w3.org/2000/svg" version="1.1" xmlns:xlink="http://www.w3.org/1999/xlink" xmlns:svgjs="http://svgjs.dev/svgjs" viewBox="0 0 800 800"><g fill="none" stroke-width="2.25" stroke="hsl(265, 55%, 20%)" stroke-linecap="round" stroke-dasharray="34 5.5"><line x1="679" y1="400" x2="121" y2="400" transform="rotate(0, 400, 400)" opacity="0.75"></line><line x1="-38.5" y1="400" x2="838.5" y2="400" transform="rotate(3, 400, 400)" opacity="0.23"></line><line x1="245" y1="400" x2="555" y2="400" transform="rotate(6, 400, 400)" opacity="0.77"></line><line x1="487" y1="400" x2="313" y2="400" transform="rotate(9, 400, 400)" opacity="0.58"></line><line x1="242.5" y1="400" x2="557.5" y2="400" transform="rotate(12, 400, 400)" opacity="0.30"></line><line x1="235.5" y1="400" x2="564.5" y2="400" transform="rotate(15, 400, 400)" opacity="0.19"></line><line x1="160" y1="400" x2="640" y2="400" transform="rotate(18, 400, 400)" opacity="0.65"></line><line x1="-19" y1="400" x2="819" y2="400" transform="rotate(21, 400, 400)" opacity="0.85"></line><line x1="285.5" y1="400" x2="514.5" y2="400" transform="rotate(24, 400, 400)" opacity="0.39"></line><line x1="654" y1="400" x2="146" y2="400" transform="rotate(27, 400, 400)" opacity="0.36"></line><line x1="-88.5" y1="400" x2="888.5" y2="400" transform="rotate(30, 400, 400)" opacity="0.22"></line><line x1="632.5" y1="400" x2="167.5" y2="400" transform="rotate(33, 400, 400)" opacity="0.98"></line><line x1="232" y1="400" x2="568" y2="400" transform="rotate(36, 400, 400)" opacity="0.53"></line><line x1="-97.5" y1="400" x2="897.5" y2="400" transform="rotate(39, 400, 400)" opacity="0.77"></line><line x1="644" y1="400" x2="156" y2="400" transform="rotate(42, 400, 400)" opacity="0.42"></line><line x1="565.5" y1="400" x2="234.5" y2="400" transform="rotate(45, 400, 400)" opacity="0.18"></line><line x1="161" y1="400" x2="639" y2="400" transform="rotate(48, 400, 400)" opacity="0.16"></line><line x1="94" y1="400" x2="706" y2="400" transform="rotate(51, 400, 400)" opacity="0.20"></line><line x1="129.5" y1="400" x2="670.5" y2="400" transform="rotate(54, 400, 400)" opacity="0.93"></line><line x1="66.5" y1="400" x2="733.5" y2="400" transform="rotate(57, 400, 400)" opacity="0.49"></line><line x1="665" y1="400" x2="135" y2="400" transform="rotate(60, 400, 400)" opacity="0.24"></line><line x1="371.5" y1="400" x2="428.5" y2="400" transform="rotate(63, 400, 400)" opacity="0.38"></line><line x1="599" y1="400" x2="201" y2="400" transform="rotate(66, 400, 400)" opacity="0.95"></line><line x1="698.5" y1="400" x2="101.5" y2="400" transform="rotate(69, 400, 400)" opacity="0.21"></line><line x1="-81.5" y1="400" x2="881.5" y2="400" transform="rotate(72, 400, 400)" opacity="0.30"></line><line x1="686" y1="400" x2="114" y2="400" transform="rotate(75, 400, 400)" opacity="0.65"></line><line x1="78" y1="400" x2="722" y2="400" transform="rotate(78, 400, 400)" opacity="0.59"></line><line x1="593.5" y1="400" x2="206.5" y2="400" transform="rotate(81, 400, 400)" opacity="0.61"></line><line x1="230.5" y1="400" x2="569.5" y2="400" transform="rotate(84, 400, 400)" opacity="0.74"></line><line x1="404.5" y1="400" x2="395.5" y2="400" transform="rotate(87, 400, 400)" opacity="0.63"></line><line x1="232" y1="400" x2="568" y2="400" transform="rotate(90, 400, 400)" opacity="0.78"></line><line x1="304" y1="400" x2="496" y2="400" transform="rotate(93, 400, 400)" opacity="0.41"></line><line x1="537" y1="400" x2="263" y2="400" transform="rotate(96, 400, 400)" opacity="0.94"></line><line x1="527.5" y1="400" x2="272.5" y2="400" transform="rotate(99, 400, 400)" opacity="0.99"></line><line x1="41.5" y1="400" x2="758.5" y2="400" transform="rotate(102, 400, 400)" opacity="0.87"></line><line x1="478" y1="400" x2="322" y2="400" transform="rotate(105, 400, 400)" opacity="0.97"></line><line x1="726" y1="400" x2="74" y2="400" transform="rotate(108, 400, 400)" opacity="0.79"></line><line x1="465" y1="400" x2="335" y2="400" transform="rotate(111, 400, 400)" opacity="0.46"></line><line x1="-46" y1="400" x2="846" y2="400" transform="rotate(114, 400, 400)" opacity="0.54"></line><line x1="41" y1="400" x2="759" y2="400" transform="rotate(117, 400, 400)" opacity="0.85"></line><line x1="132.5" y1="400" x2="667.5" y2="400" transform="rotate(120, 400, 400)" opacity="0.49"></line><line x1="122.5" y1="400" x2="677.5" y2="400" transform="rotate(123, 400, 400)" opacity="0.74"></line><line x1="170.5" y1="400" x2="629.5" y2="400" transform="rotate(126, 400, 400)" opacity="0.16"></line><line x1="528" y1="400" x2="272" y2="400" transform="rotate(129, 400, 400)" opacity="0.14"></line><line x1="536.5" y1="400" x2="263.5" y2="400" transform="rotate(132, 400, 400)" opacity="0.79"></line><line x1="300.5" y1="400" x2="499.5" y2="400" transform="rotate(135, 400, 400)" opacity="0.51"></line><line x1="358" y1="400" x2="442" y2="400" transform="rotate(138, 400, 400)" opacity="0.91"></line><line x1="213.5" y1="400" x2="586.5" y2="400" transform="rotate(141, 400, 400)" opacity="0.74"></line><line x1="442.5" y1="400" x2="357.5" y2="400" transform="rotate(144, 400, 400)" opacity="0.52"></line><line x1="269" y1="400" x2="531" y2="400" transform="rotate(147, 400, 400)" opacity="0.68"></line><line x1="426.5" y1="400" x2="373.5" y2="400" transform="rotate(150, 400, 400)" opacity="0.35"></line><line x1="184" y1="400" x2="616" y2="400" transform="rotate(153, 400, 400)" opacity="0.59"></line><line x1="332" y1="400" x2="468" y2="400" transform="rotate(156, 400, 400)" opacity="0.90"></line><line x1="190" y1="400" x2="610" y2="400" transform="rotate(159, 400, 400)" opacity="0.80"></line><line x1="509.5" y1="400" x2="290.5" y2="400" transform="rotate(162, 400, 400)" opacity="0.63"></line><line x1="338.5" y1="400" x2="461.5" y2="400" transform="rotate(165, 400, 400)" opacity="0.63"></line><line x1="377" y1="400" x2="423" y2="400" transform="rotate(168, 400, 400)" opacity="0.08"></line><line x1="78" y1="400" x2="722" y2="400" transform="rotate(171, 400, 400)" opacity="0.20"></line><line x1="148.5" y1="400" x2="651.5" y2="400" transform="rotate(174, 400, 400)" opacity="0.82"></line><line x1="664" y1="400" x2="136" y2="400" transform="rotate(177, 400, 400)" opacity="0.90"></line><line x1="406.5" y1="400" x2="393.5" y2="400" transform="rotate(180, 400, 400)" opacity="0.34"></line><line x1="584" y1="400" x2="216" y2="400" transform="rotate(183, 400, 400)" opacity="0.53"></line><line x1="94.5" y1="400" x2="705.5" y2="400" transform="rotate(186, 400, 400)" opacity="0.12"></line><line x1="-77" y1="400" x2="877" y2="400" transform="rotate(189, 400, 400)" opacity="0.97"></line><line x1="570" y1="400" x2="230" y2="400" transform="rotate(192, 400, 400)" opacity="0.30"></line><line x1="344" y1="400" x2="456" y2="400" transform="rotate(195, 400, 400)" opacity="0.58"></line><line x1="16.5" y1="400" x2="783.5" y2="400" transform="rotate(198, 400, 400)" opacity="0.60"></line><line x1="80.5" y1="400" x2="719.5" y2="400" transform="rotate(201, 400, 400)" opacity="0.95"></line><line x1="617" y1="400" x2="183" y2="400" transform="rotate(204, 400, 400)" opacity="0.41"></line><line x1="678" y1="400" x2="122" y2="400" transform="rotate(207, 400, 400)" opacity="0.54"></line><line x1="403.5" y1="400" x2="396.5" y2="400" transform="rotate(210, 400, 400)" opacity="0.49"></line><line x1="-73" y1="400" x2="873" y2="400" transform="rotate(213, 400, 400)" opacity="0.70"></line><line x1="289.5" y1="400" x2="510.5" y2="400" transform="rotate(216, 400, 400)" opacity="0.46"></line><line x1="464.5" y1="400" x2="335.5" y2="400" transform="rotate(219, 400, 400)" opacity="0.92"></line><line x1="362.5" y1="400" x2="437.5" y2="400" transform="rotate(222, 400, 400)" opacity="0.17"></line><line x1="286.5" y1="400" x2="513.5" y2="400" transform="rotate(225, 400, 400)" opacity="0.39"></line><line x1="311" y1="400" x2="489" y2="400" transform="rotate(228, 400, 400)" opacity="0.48"></line><line x1="427.5" y1="400" x2="372.5" y2="400" transform="rotate(231, 400, 400)" opacity="0.81"></line><line x1="501" y1="400" x2="299" y2="400" transform="rotate(234, 400, 400)" opacity="0.26"></line><line x1="371.5" y1="400" x2="428.5" y2="400" transform="rotate(237, 400, 400)" opacity="0.41"></line><line x1="276.5" y1="400" x2="523.5" y2="400" transform="rotate(240, 400, 400)" opacity="0.08"></line><line x1="-68" y1="400" x2="868" y2="400" transform="rotate(243, 400, 400)" opacity="0.44"></line><line x1="153.5" y1="400" x2="646.5" y2="400" transform="rotate(246, 400, 400)" opacity="0.09"></line><line x1="596.5" y1="400" x2="203.5" y2="400" transform="rotate(249, 400, 400)" opacity="0.97"></line><line x1="544.5" y1="400" x2="255.5" y2="400" transform="rotate(252, 400, 400)" opacity="0.31"></line><line x1="629.5" y1="400" x2="170.5" y2="400" transform="rotate(255, 400, 400)" opacity="0.58"></line><line x1="-23.5" y1="400" x2="823.5" y2="400" transform="rotate(258, 400, 400)" opacity="0.71"></line><line x1="341" y1="400" x2="459" y2="400" transform="rotate(261, 400, 400)" opacity="0.18"></line><line x1="-25.5" y1="400" x2="825.5" y2="400" transform="rotate(264, 400, 400)" opacity="0.93"></line><line x1="422" y1="400" x2="378" y2="400" transform="rotate(267, 400, 400)" opacity="0.44"></line><line x1="269.5" y1="400" x2="530.5" y2="400" transform="rotate(270, 400, 400)" opacity="0.14"></line><line x1="-55" y1="400" x2="855" y2="400" transform="rotate(273, 400, 400)" opacity="0.21"></line><line x1="513.5" y1="400" x2="286.5" y2="400" transform="rotate(276, 400, 400)" opacity="0.39"></line><line x1="720" y1="400" x2="80" y2="400" transform="rotate(279, 400, 400)" opacity="0.12"></line><line x1="489.5" y1="400" x2="310.5" y2="400" transform="rotate(282, 400, 400)" opacity="0.16"></line><line x1="610" y1="400" x2="190" y2="400" transform="rotate(285, 400, 400)" opacity="0.07"></line><line x1="507.5" y1="400" x2="292.5" y2="400" transform="rotate(288, 400, 400)" opacity="0.73"></line><line x1="245" y1="400" x2="555" y2="400" transform="rotate(291, 400, 400)" opacity="0.67"></line><line x1="-72.5" y1="400" x2="872.5" y2="400" transform="rotate(294, 400, 400)" opacity="0.99"></line><line x1="247.5" y1="400" x2="552.5" y2="400" transform="rotate(297, 400, 400)" opacity="0.22"></line><line x1="-78.5" y1="400" x2="878.5" y2="400" transform="rotate(300, 400, 400)" opacity="0.44"></line><line x1="64.5" y1="400" x2="735.5" y2="400" transform="rotate(303, 400, 400)" opacity="0.29"></line><line x1="468.5" y1="400" x2="331.5" y2="400" transform="rotate(306, 400, 400)" opacity="0.79"></line><line x1="474" y1="400" x2="326" y2="400" transform="rotate(309, 400, 400)" opacity="0.99"></line><line x1="624.5" y1="400" x2="175.5" y2="400" transform="rotate(312, 400, 400)" opacity="0.65"></line><line x1="60" y1="400" x2="740" y2="400" transform="rotate(315, 400, 400)" opacity="0.57"></line><line x1="661" y1="400" x2="139" y2="400" transform="rotate(318, 400, 400)" opacity="0.73"></line><line x1="699.5" y1="400" x2="100.5" y2="400" transform="rotate(321, 400, 400)" opacity="0.35"></line><line x1="413.5" y1="400" x2="386.5" y2="400" transform="rotate(324, 400, 400)" opacity="0.81"></line><line x1="-82.5" y1="400" x2="882.5" y2="400" transform="rotate(327, 400, 400)" opacity="0.79"></line><line x1="148.5" y1="400" x2="651.5" y2="400" transform="rotate(330, 400, 400)" opacity="0.43"></line><line x1="170.5" y1="400" x2="629.5" y2="400" transform="rotate(333, 400, 400)" opacity="0.54"></line><line x1="675.5" y1="400" x2="124.5" y2="400" transform="rotate(336, 400, 400)" opacity="0.61"></line><line x1="502.5" y1="400" x2="297.5" y2="400" transform="rotate(339, 400, 400)" opacity="0.23"></line><line x1="339.5" y1="400" x2="460.5" y2="400" transform="rotate(342, 400, 400)" opacity="0.96"></line><line x1="-44" y1="400" x2="844" y2="400" transform="rotate(345, 400, 400)" opacity="0.67"></line><line x1="660" y1="400" x2="140" y2="400" transform="rotate(348, 400, 400)" opacity="0.24"></line><line x1="71" y1="400" x2="729" y2="400" transform="rotate(351, 400, 400)" opacity="0.31"></line><line x1="375.5" y1="400" x2="424.5" y2="400" transform="rotate(354, 400, 400)" opacity="0.99"></line><line x1="463.5" y1="400" x2="336.5" y2="400" transform="rotate(357, 400, 400)" opacity="0.16"></line><line x1="23" y1="400" x2="777" y2="400" transform="rotate(360, 400, 400)" opacity="0.72"></line><line x1="585.5" y1="400" x2="214.5" y2="400" transform="rotate(363, 400, 400)" opacity="0.92"></line><line x1="62" y1="400" x2="738" y2="400" transform="rotate(366, 400, 400)" opacity="0.63"></line><line x1="266" y1="400" x2="534" y2="400" transform="rotate(369, 400, 400)" opacity="0.90"></line><line x1="518" y1="400" x2="282" y2="400" transform="rotate(372, 400, 400)" opacity="0.09"></line><line x1="558.5" y1="400" x2="241.5" y2="400" transform="rotate(375, 400, 400)" opacity="0.63"></line><line x1="90.5" y1="400" x2="709.5" y2="400" transform="rotate(378, 400, 400)" opacity="0.53"></line><line x1="544.5" y1="400" x2="255.5" y2="400" transform="rotate(381, 400, 400)" opacity="0.27"></line><line x1="20.5" y1="400" x2="779.5" y2="400" transform="rotate(384, 400, 400)" opacity="0.52"></line><line x1="260.5" y1="400" x2="539.5" y2="400" transform="rotate(387, 400, 400)" opacity="0.74"></line><line x1="121" y1="400" x2="679" y2="400" transform="rotate(390, 400, 400)" opacity="0.79"></line><line x1="191" y1="400" x2="609" y2="400" transform="rotate(393, 400, 400)" opacity="0.38"></line><line x1="125.5" y1="400" x2="674.5" y2="400" transform="rotate(396, 400, 400)" opacity="0.52"></line><line x1="-109" y1="400" x2="909" y2="400" transform="rotate(399, 400, 400)" opacity="0.62"></line><line x1="265.5" y1="400" x2="534.5" y2="400" transform="rotate(402, 400, 400)" opacity="0.42"></line><line x1="293.5" y1="400" x2="506.5" y2="400" transform="rotate(405, 400, 400)" opacity="0.65"></line><line x1="209" y1="400" x2="591" y2="400" transform="rotate(408, 400, 400)" opacity="0.47"></line><line x1="453.5" y1="400" x2="346.5" y2="400" transform="rotate(411, 400, 400)" opacity="0.51"></line><line x1="580.5" y1="400" x2="219.5" y2="400" transform="rotate(414, 400, 400)" opacity="0.48"></line></g></svg>